<svg width="50" height="48" viewBox="0 0 50 48" fill="none" xmlns="http://www.w3.org/2000/svg">
<path d="M6.87608 0C5.05276 0 3.30412 0.723664 2.01484 2.01179C0.72556 3.29992 0.00124988 5.047 0.00124988 6.86869V19.9816C1.99032 17.3319 4.95147 15.5802 8.23328 15.1118C11.5151 14.6433 14.8487 15.4966 17.5008 17.4839C20.1529 19.4712 21.9062 22.4297 22.3751 25.7086C22.8439 28.9875 21.9898 32.3181 20.0007 34.9679V37.4656H43.1252C44.9485 37.4656 46.6971 36.7419 47.9864 35.4538C49.2757 34.1657 50 32.4186 50 30.5969V6.86869C50 5.047 49.2757 3.29992 47.9864 2.01179C46.6971 0.723664 44.9485 0 43.1252 0H6.87608ZM11.876 9.99082H38.1253C38.6226 9.99082 39.0995 10.1882 39.4511 10.5395C39.8027 10.8908 40.0002 11.3673 40.0002 11.8641C40.0002 12.3609 39.8027 12.8374 39.4511 13.1887C39.0995 13.54 38.6226 13.7374 38.1253 13.7374H11.876C11.3787 13.7374 10.9018 13.54 10.5502 13.1887C10.1985 12.8374 10.001 12.3609 10.001 11.8641C10.001 11.3673 10.1985 10.8908 10.5502 10.5395C10.9018 10.1882 11.3787 9.99082 11.876 9.99082ZM25.0006 24.3526C25.0006 23.8558 25.1982 23.3793 25.5498 23.028C25.9014 22.6767 26.3783 22.4794 26.8756 22.4794H38.1253C38.6226 22.4794 39.0995 22.6767 39.4511 23.028C39.8027 23.3793 40.0002 23.8558 40.0002 24.3526C40.0002 24.8495 39.8027 25.3259 39.4511 25.6772C39.0995 26.0285 38.6226 26.2259 38.1253 26.2259H26.8756C26.3783 26.2259 25.9014 26.0285 25.5498 25.6772C25.1982 25.3259 25.0006 24.8495 25.0006 24.3526ZM10.001 17.4839C7.34857 17.4839 4.80478 18.5367 2.92923 20.4106C1.05367 22.2844 0 24.8259 0 27.476C0 30.1261 1.05367 32.6676 2.92923 34.5415C4.80478 36.4154 7.34857 37.4681 10.001 37.4681C12.6534 37.4681 15.1972 36.4154 17.0728 34.5415C18.9483 32.6676 20.002 30.1261 20.002 27.476C20.002 24.8259 18.9483 22.2844 17.0728 20.4106C15.1972 18.5367 12.6534 17.4839 10.001 17.4839ZM17.5008 37.4681C15.4134 39.0366 12.8159 39.9658 10.001 39.9658C7.29637 39.9712 4.66359 39.0962 2.50119 37.4731V45.5806C2.50119 47.0043 4.01365 47.8785 5.22612 47.2516L5.45111 47.1142L10.001 43.9371L14.5509 47.1142C14.8136 47.2975 15.1191 47.4105 15.4379 47.4423C15.7568 47.4741 16.0786 47.4238 16.3724 47.296C16.6663 47.1682 16.9225 46.9674 17.1165 46.7125C17.3106 46.4577 17.436 46.1574 17.4808 45.8404L17.5008 45.5806L17.5033 37.4656L17.5008 37.4681Z" fill="#00BD92"/>
</svg>
