<svg width="50" height="50" viewBox="0 0 50 50" fill="none" xmlns="http://www.w3.org/2000/svg">
<path fill-rule="evenodd" clip-rule="evenodd" d="M21.6291 1.39452C22.4731 0.551591 23.6024 0.0555999 24.7942 0.00439852C25.9859 -0.0468028 27.1536 0.350504 28.0668 1.11793L28.372 1.3969L32.9022 5.92476H39.3066C40.5092 5.92498 41.6674 6.37962 42.5491 7.1976C43.4307 8.01559 43.9707 9.1365 44.0609 10.3358L44.0752 10.6934V17.0978L48.6055 21.628C49.4491 22.4722 49.9455 23.6019 49.9967 24.7942C50.0479 25.9866 49.6502 27.1547 48.8821 28.0681L48.6031 28.3709L44.0729 32.9011V39.3055C44.0732 40.5086 43.6189 41.6673 42.8008 42.5495C41.9828 43.4316 40.8615 43.972 39.6618 44.0622L39.3066 44.0742H32.9046L28.3744 48.6044C27.5302 49.448 26.4005 49.9444 25.2081 49.9956C24.0158 50.0468 22.8477 49.6491 21.9343 48.881L21.6315 48.6044L17.1012 44.0742H10.6945C9.49144 44.0745 8.33267 43.6202 7.45051 42.8021C6.56835 41.9841 6.028 40.8628 5.93777 39.6631L5.92585 39.3055V32.9011L1.3956 28.3709C0.552013 27.5268 0.0556016 26.397 0.00439528 25.2047C-0.0468111 24.0124 0.35091 22.8442 1.11902 21.9308L1.3956 21.628L5.92585 17.0978V10.6934C5.92607 9.49076 6.38071 8.33259 7.19869 7.45094C8.01668 6.56928 9.13759 6.02926 10.3369 5.93906L10.6945 5.92476H17.0989L21.6291 1.39452ZM32.3419 17.8059L22.2228 27.925L18.0073 23.7095C17.5599 23.2624 16.9532 23.0114 16.3207 23.0116C15.6882 23.0119 15.0817 23.2633 14.6346 23.7107C14.1876 24.1581 13.9365 24.7648 13.9367 25.3973C13.937 26.0298 14.1884 26.6363 14.6358 27.0834L20.3678 32.8153C20.6113 33.059 20.9005 33.2523 21.2188 33.3842C21.5371 33.5161 21.8783 33.5839 22.2228 33.5839C22.5673 33.5839 22.9085 33.5161 23.2268 33.3842C23.5451 33.2523 23.8342 33.059 24.0778 32.8153L35.7134 21.1774C36.1477 20.7277 36.388 20.1254 36.3826 19.5002C36.3772 18.875 36.1264 18.277 35.6843 17.835C35.2423 17.3929 34.6442 17.1421 34.0191 17.1367C33.3939 17.1313 32.7916 17.3716 32.3419 17.8059Z" fill="#00BD92"/>
</svg>
