<svg width="46" height="52" viewBox="0 0 46 52" fill="none" xmlns="http://www.w3.org/2000/svg">
<path d="M22.0372 0V9.8259H23C24.594 9.8259 25.4605 11.1176 25.546 12.4314C25.5888 13.0938 25.4177 13.7011 25.0433 14.1316C24.6688 14.5732 24.0698 14.9045 23 14.9045C22.4651 14.9045 21.8126 14.5953 21.3312 14.0875C20.8391 13.5907 20.5395 12.9172 20.5395 12.3652H18.614C18.614 13.5796 19.1702 14.6726 19.9619 15.5006C20.7642 16.3176 21.8233 16.8917 23 16.8917C24.4977 16.8917 25.7172 16.3397 26.4767 15.4565C27.247 14.5622 27.5465 13.403 27.4716 12.2989C27.3433 10.3669 26.0381 8.41495 23.9628 7.94684V0H22.0372ZM16.913 15.5117L2.17591 25.5032H5.67405L17.9614 17.1677L16.913 15.5117ZM29.087 15.5117L28.0386 17.1677L40.3302 25.5032H43.8177L29.087 15.5117ZM0 27.4904V52H46V27.4904H0ZM4.06512 30.0297H5.9907V49.4607H4.06512V30.0297ZM9.2 30.0297H11.1256V49.4607H9.2V30.0297ZM14.3349 30.0297H16.2605V49.4607H14.3349V30.0297ZM19.4698 30.0297H21.3953V49.4607H19.4698V30.0297ZM24.6047 30.0297H26.5302V49.4607H24.6047V30.0297ZM29.7395 30.0297H31.6651V49.4607H29.7395V30.0297ZM34.8744 30.0297H36.8V49.4607H34.8744V30.0297ZM40.0093 30.0297H41.9349V49.4607H40.0093V30.0297Z" fill="#00BD92"/>
</svg>
