<svg width="54" height="54" viewBox="0 0 54 54" fill="none" xmlns="http://www.w3.org/2000/svg">
<path d="M28.6773 0L30.422 3.96573C31.3251 4.0206 32.2237 4.13382 33.112 4.30468L35.7809 0.873717L38.6574 1.8474L38.6717 6.21257C39.8903 6.83613 41.058 7.59002 42.1611 8.4699L46.2265 6.6476L48.3079 8.85163L46.2266 12.7816C46.8906 13.724 47.4742 14.7201 47.9711 15.7595L52.4346 15.8807L53.3409 18.7657L49.7371 21.4086C49.9096 22.479 49.9939 23.5607 49.9987 24.6432L54 26.6617L53.5809 29.6574L49.189 30.5133C48.9265 31.4285 48.6009 32.3246 48.2147 33.1952L51.109 36.7723L49.4935 39.3328L44.9942 38.2843C44.7095 38.6179 44.4145 38.9425 44.1095 39.2578C43.4725 39.9137 42.7941 40.5284 42.0782 41.098L42.9523 45.5845L40.3229 47.0966L36.8876 44.1187C35.9047 44.5121 34.8926 44.8292 33.8606 45.0673L32.7392 49.4503L29.7124 49.6964L27.8926 45.5629C26.6351 45.4876 25.3817 45.3004 24.1492 44.9994L21.2582 48.334L18.4391 47.2106L18.5216 45.5201L25.1022 40.5524C27.0179 41.0346 29.0044 41.1636 30.9556 40.9445C34.5956 40.536 38.0937 38.8995 40.8388 36.0731C47.1135 29.6122 46.9341 19.3349 40.4447 13.0883C37.3016 10.0626 33.2585 8.52764 29.2109 8.48416C24.9019 8.43783 20.589 10.0814 17.3537 13.4127C12.0881 18.8349 11.3704 26.9915 15.1113 33.1667L11.4465 35.9341C10.9909 35.2228 10.5793 34.4844 10.2142 33.723L5.78314 33.6017L4.87686 30.7167L8.45531 28.0919C8.28271 27.0126 8.19532 25.9216 8.19395 24.8287L4.21762 22.8173L4.6366 19.8216L9.02468 18.9657C9.3939 17.7002 9.88329 16.4726 10.4862 15.2995L7.87149 11.694L9.61962 9.22242L13.9252 10.467C13.9793 10.41 14.0318 10.3521 14.0866 10.2958C14.7643 9.59774 15.4896 8.94707 16.2573 8.34847L15.4334 4.1117L18.0631 2.5997L21.3301 5.43152C22.3877 5.00778 23.4739 4.67797 24.5757 4.43295L25.6467 0.246047L28.6773 0ZM35.3438 17.5177C36.5295 17.5312 37.7048 17.821 38.7827 18.3485L33.5991 22.2645C32.0314 23.4486 31.5867 25.699 32.7898 27.2787C33.9932 28.8593 36.3039 29.0969 37.8943 27.8958L43.0743 23.9835C43.6047 26.8129 42.6003 29.8109 40.1404 31.6689C37.9343 33.3348 35.103 33.6467 32.6642 32.7745L32.1162 32.5783L31.6543 32.9278L16.1573 44.6326L15.6953 44.982L15.7347 45.5598C15.9224 48.1333 14.8647 50.7649 12.6576 52.4319C10.1976 54.2898 7.02402 54.4439 4.42934 53.1737L9.60907 49.2616C11.1995 48.0604 11.5901 45.7802 10.3863 44.201C9.18264 42.6215 6.88577 42.4429 5.31762 43.6267L0.137665 47.5392C-0.391472 44.7108 0.608799 41.7113 3.06798 39.8538C5.28185 38.181 8.09078 37.8495 10.5153 38.7088L11.0598 38.9014L11.5218 38.5518L27.0188 26.8473L27.4808 26.4977L27.4413 25.9237C27.2636 23.3688 28.3412 20.7661 30.5544 19.0941C31.9923 18.0081 33.6749 17.4989 35.3437 17.5178L35.3438 17.5177ZM30.3501 27.8172L11.5649 42.0076L12.8582 43.7087L31.6469 29.5148L30.3501 27.8172Z" fill="#00BD92"/>
</svg>
