<svg width="50" height="48" viewBox="0 0 50 48" fill="none" xmlns="http://www.w3.org/2000/svg">
<path fill-rule="evenodd" clip-rule="evenodd" d="M17.5242 2.48256C17.5242 1.82414 17.7874 1.19269 18.2559 0.727125C18.7244 0.261554 19.3598 0 20.0224 0H30.0154C30.678 0 31.3134 0.261554 31.7819 0.727125C32.2505 1.19269 32.5137 1.82414 32.5137 2.48256V7.44768H40.0084C40.3771 7.44782 40.7411 7.52904 41.0744 7.68551C41.4078 7.84198 41.7021 8.06981 41.9364 8.35268C42.1707 8.63554 42.339 8.96642 42.4294 9.32157C42.5198 9.67673 42.53 10.0474 42.4592 10.4069L41.3675 15.9629L38.0523 15.2305L25.561 12.4724C25.204 12.3935 24.8339 12.3935 24.4768 12.4724L11.9856 15.228L8.67039 15.9629L7.57865 10.4069C7.50787 10.0474 7.51804 9.67673 7.60842 9.32157C7.69881 8.96642 7.86717 8.63554 8.10143 8.35268C8.3357 8.06981 8.63005 7.84198 8.96339 7.68551C9.29673 7.52904 9.66078 7.44782 10.0294 7.44768H17.5242V2.48256ZM2.30485 22.3331L1.99257 22.4026C1.6222 22.4846 1.27551 22.6494 0.978796 22.8845C0.682084 23.1195 0.443152 23.4187 0.280132 23.7592C0.117113 24.0997 0.034291 24.4726 0.037951 24.8497C0.041611 25.2267 0.131657 25.598 0.301256 25.9353L5.29775 35.8655C5.53202 36.3313 5.90775 36.7121 6.37178 36.954C6.8358 37.1959 7.36463 37.2867 7.88344 37.2136L25.0189 34.7807L42.1544 37.2136C42.6732 37.2867 43.202 37.1959 43.6661 36.954C44.1301 36.7121 44.5058 36.3313 44.7401 35.8655L49.7366 25.9353C49.9062 25.598 49.9962 25.2267 49.9999 24.8497C50.0035 24.4726 49.9207 24.0997 49.7577 23.7592C49.5947 23.4187 49.3558 23.1195 49.059 22.8845C48.7623 22.6494 48.4156 22.4846 48.0453 22.4026L47.733 22.3331C47.4746 22.3565 47.2142 22.3397 46.961 22.2834L36.968 20.0765L25.0189 17.4375L13.0698 20.0765L3.07681 22.2859C2.82351 22.3414 2.56307 22.3573 2.30485 22.3331ZM18.1937 41.2229C19.0451 40.2561 20.0947 39.4812 21.272 38.9504C22.4494 38.4195 23.7273 38.1449 25.0202 38.1449C26.313 38.1449 27.591 38.4195 28.7683 38.9504C29.9457 39.4812 30.9952 40.2561 31.8466 41.2229L31.9341 41.3222C32.5606 42.0344 33.4264 42.4959 34.3701 42.6206C35.3138 42.7453 36.2709 42.5247 37.063 41.9999C38.2664 41.203 39.6468 40.7089 41.0852 40.5601C42.5236 40.4114 43.9769 40.6124 45.3197 41.1459L48.43 42.3798C49.0351 42.631 49.5165 43.1087 49.7703 43.7095C50.0241 44.3104 50.0299 44.9864 49.7866 45.5915C49.5433 46.1966 49.0703 46.6824 48.4697 46.9441C47.8691 47.2057 47.189 47.2221 46.5763 46.9899L43.466 45.7536C42.8751 45.519 42.2357 45.4307 41.6029 45.4965C40.97 45.5622 40.3628 45.7799 39.8335 46.1309C38.0329 47.3236 35.8574 47.825 33.7124 47.5418C31.5673 47.2587 29.599 46.2102 28.1742 44.5917L28.0868 44.4924C27.7043 44.0576 27.2327 43.7092 26.7036 43.4704C26.1744 43.2317 25.6 43.1081 25.0189 43.1081C24.4378 43.1081 23.8634 43.2317 23.3343 43.4704C22.8051 43.7092 22.3335 44.0576 21.9511 44.4924L21.8636 44.5917C20.4389 46.2102 18.4705 47.2587 16.3255 47.5418C14.1804 47.825 12.0049 47.3236 10.2043 46.1309C9.67505 45.7799 9.06781 45.5622 8.43498 45.4965C7.80215 45.4307 7.16272 45.519 6.57186 45.7536L3.46154 46.9899C3.15579 47.1168 2.82767 47.1821 2.49629 47.1819C2.16492 47.1816 1.8369 47.1158 1.53135 46.9884C1.2258 46.8609 0.948815 46.6744 0.716529 46.4395C0.484242 46.2047 0.301294 45.9262 0.178338 45.6204C0.0553822 45.3146 -0.00512488 44.9876 0.000339737 44.6584C0.00580435 44.3291 0.0771319 44.0042 0.210169 43.7026C0.343206 43.401 0.535293 43.1287 0.775246 42.9016C1.0152 42.6745 1.29822 42.4971 1.60784 42.3798L4.71816 41.1459C6.06097 40.6124 7.5142 40.4114 8.95259 40.5601C10.391 40.7089 11.7714 41.203 12.9749 41.9999C13.7669 42.5247 14.724 42.7453 15.6677 42.6206C16.6114 42.4959 17.4772 42.0344 18.1038 41.3222L18.1937 41.2229Z" fill="#00BD92"/>
</svg>
